<?xml version="1.0" standalone="no"?>
<!DOCTYPE svg PUBLIC "-//W3C//DTD SVG 20010904//EN"
 "http://www.w3.org/TR/2001/REC-SVG-20010904/DTD/svg10.dtd">
<svg version="1.0" xmlns="http://www.w3.org/2000/svg"
 width="600.000000pt" height="600.000000pt" viewBox="0 0 600.000000 600.000000"
 preserveAspectRatio="xMidYMid meet">
<metadata>
Created by potrace 1.14, written by Peter Selinger 2001-2017
</metadata>
<g transform="translate(0.000000,600.000000) scale(0.100000,-0.100000)"
fill="#000000" stroke="none">
<path d="M5797 5083 c-1 -1 -94 -4 -207 -8 -113 -3 -248 -8 -300 -10 -52 -2
-176 -7 -275 -10 -122 -4 -182 -10 -187 -18 -4 -7 -8 -37 -9 -67 -1 -30 -3
-73 -4 -95 -2 -22 -6 -68 -9 -102 -5 -55 -27 -206 -40 -271 -74 -365 -249
-609 -504 -706 -195 -75 -403 -85 -1022 -49 -174 10 -559 10 -675 0 -100 -8
-123 -11 -245 -34 -47 -8 -96 -17 -110 -20 -86 -15 -286 -82 -405 -136 -527
-240 -966 -715 -1326 -1432 -168 -335 -263 -566 -405 -989 -41 -120 -74 -223
-74 -227 0 -7 1239 -4 2115 5 l129 1 18 75 c9 41 19 89 22 105 3 17 12 62 22
100 9 39 18 81 20 95 3 14 7 33 10 42 3 10 7 28 10 40 2 13 18 75 34 138 17
63 39 147 49 185 78 294 247 720 367 925 219 376 476 577 789 619 67 8 246 7
329 -3 65 -8 251 -47 461 -98 279 -66 450 -84 605 -65 153 18 300 94 419 217
54 55 161 199 161 216 0 7 4 14 9 16 13 5 104 199 149 318 85 225 172 572 231
920 32 194 51 313 51 322 0 7 -196 8 -203 1z"/>
</g>
</svg>
